<svg xmlns="http://www.w3.org/2000/svg" width="82.696" height="86.891" viewBox="0 0 82.696 86.891">
  <g id="グループ_286" data-name="グループ 286" transform="translate(6889.252 184.891)">
    <g id="グループ_285" data-name="グループ 285">
      <path id="パス_121" data-name="パス 121" d="M29.036,1.318c13.226,0,22.2,11.744,22.2,24.811S38.868,46.919,25.641,46.919,4.7,36.686,4.7,23.618,15.81,1.318,29.036,1.318Z" transform="translate(-6875.774 -164.257)" fill="#cc8050"/>
      <path id="パス_116" data-name="パス 116" d="M15.045,0S10.9,8.293,7.143,10.106,0,7.252,0,7.252L4.408,2.083,7.143,5.37" transform="matrix(0.998, -0.07, 0.07, 0.998, -6823.743, -160.517)" fill="none" stroke="#cc8050" stroke-width="3"/>
      <path id="パス_117" data-name="パス 117" d="M15.046,0S10.9,8.294,7.143,10.107,0,7.252,0,7.252L4.409,2.083,7.143,5.37" transform="matrix(0.259, -0.966, 0.966, 0.259, -6855.105, -168.889)" fill="none" stroke="#cc8050" stroke-width="3"/>
      <path id="パス_118" data-name="パス 118" d="M15.046,0S10.9,8.294,7.143,10.107,0,7.252,0,7.252L4.409,2.083,7.143,5.37" transform="translate(-6880.478 -146.646) rotate(-120)" fill="none" stroke="#cc8050" stroke-width="3"/>
      <path id="パス_119" data-name="パス 119" d="M0,10.525S4.142,2.231,7.9.418s7.143,2.854,7.143,2.854L10.637,8.442,7.9,5.155" transform="translate(-6886.928 -124.172) rotate(-8)" fill="none" stroke="#cc8050" stroke-width="3"/>
      <path id="パス_120" data-name="パス 120" d="M15.046,0S10.9,8.294,7.143,10.107,0,7.252,0,7.252L4.409,2.083,7.143,5.37" transform="matrix(0.777, 0.629, -0.629, 0.777, -6820.554, -128.936)" fill="none" stroke="#cc8050" stroke-width="3"/>
      <text id="春風" transform="translate(-6867.717 -100)" fill="#fff" font-size="16" font-family="TsukuARdGothic-Regular, Tsukushi A Round Gothic" letter-spacing="0.5em"><tspan x="0" y="0">春風</tspan></text>
    </g>
  </g>
</svg>
